<?xml version="1.0" encoding="UTF-8" standalone="no"?>
<!-- Created with Inkscape (http://www.inkscape.org/) -->

<svg
   version="1.1"
   id="svg1"
   width="1536"
   height="1024"
   viewBox="0 0 1536 1024"
   sodipodi:docname="vector negro.svg"
   inkscape:version="1.4.2 (f4327f4, 2025-05-13)"
   inkscape:export-filename="blanco fondo negro.png"
   inkscape:export-xdpi="96"
   inkscape:export-ydpi="96"
   xmlns:inkscape="http://www.inkscape.org/namespaces/inkscape"
   xmlns:sodipodi="http://sodipodi.sourceforge.net/DTD/sodipodi-0.dtd"
   xmlns="http://www.w3.org/2000/svg"
   xmlns:svg="http://www.w3.org/2000/svg">
  <defs
     id="defs1">
    <inkscape:path-effect
       effect="fillet_chamfer"
       id="path-effect14"
       is_visible="true"
       lpeversion="1"
       nodesatellites_param="F,0,0,1,0,0,0,1 @ F,0,0,1,0,0,0,1 @ F,0,0,1,0,0,0,1 @ F,0,0,1,0,0,0,1 @ F,0,0,1,0,0,0,1 @ F,0,0,1,0,0,0,1 @ F,0,0,1,0,0,0,1 @ F,0,0,1,0,0,0,1 @ F,0,0,1,0,0,0,1 @ F,0,0,1,0,0,0,1 @ F,0,0,1,0,0,0,1 @ F,0,0,1,0,0,0,1 @ F,0,0,1,0,0,0,1 @ F,0,0,1,0,0,0,1 @ F,0,0,1,0,0,0,1 @ F,0,0,1,0,0,0,1 @ F,0,0,1,0,0,0,1 @ F,0,0,1,0,0,0,1 @ F,0,0,1,0,0,0,1 @ F,0,0,1,0,0,0,1 @ F,0,0,1,0,0,0,1 @ F,0,0,1,0,0,0,1 @ F,0,0,1,0,0,0,1 @ F,0,0,1,0,0,0,1 @ F,0,0,1,0,0,0,1 @ F,0,0,1,0,0,0,1 @ F,0,0,1,0,0,0,1 @ F,0,0,1,0,0,0,1 @ F,0,0,1,0,0,0,1 @ F,0,0,1,0,0,0,1 @ F,0,0,1,0,0,0,1 @ F,0,0,1,0,0,0,1 @ F,0,0,1,0,0,0,1 @ F,0,0,1,0,0,0,1 @ F,0,0,1,0,0,0,1 @ F,0,0,1,0,0,0,1 @ F,0,0,1,0,0,0,1 @ F,0,0,1,0,0,0,1 @ F,0,0,1,0,0,0,1 @ F,0,0,1,0,0,0,1 @ F,0,0,1,0,0,0,1 @ F,0,0,1,0,0,0,1 @ F,0,0,1,0,0,0,1 @ F,0,0,1,0,0,0,1 @ F,0,0,1,0,0,0,1 @ F,0,0,1,0,0,0,1 @ F,0,0,1,0,0,0,1 @ F,0,0,1,0,0,0,1 @ F,0,0,1,0,0,0,1 @ F,0,0,1,0,0,0,1 @ F,0,0,1,0,0,0,1 @ F,0,0,1,0,0,0,1 @ F,0,0,1,0,0,0,1 @ F,0,0,1,0,0,0,1 @ F,0,0,1,0,0,0,1 @ F,0,0,1,0,0,0,1 @ F,0,0,1,0,0,0,1 @ F,0,0,1,0,0,0,1 @ F,0,0,1,0,0,0,1 @ F,0,0,1,0,0,0,1 @ F,0,0,1,0,0,0,1 @ F,0,0,1,0,0,0,1 @ F,0,0,1,0,0,0,1 @ F,0,0,1,0,0,0,1 @ F,0,0,1,0,0,0,1 @ F,0,0,1,0,0,0,1 @ F,0,0,1,0,0,0,1 @ F,0,0,1,0,0,0,1 @ F,0,0,1,0,0,0,1 @ F,0,0,1,0,0,0,1 @ F,0,0,1,0,0,0,1 @ F,0,0,1,0,0,0,1 @ F,0,0,1,0,0,0,1 @ F,0,0,1,0,0,0,1 @ F,0,0,1,0,0,0,1 @ F,0,0,1,0,0,0,1 @ F,0,0,1,0,0,0,1 @ F,0,0,1,0,0,0,1 @ F,0,0,1,0,0,0,1 @ F,0,0,1,0,0,0,1 @ F,0,0,1,0,0,0,1 @ F,0,0,1,0,0,0,1 @ F,0,0,1,0,0,0,1 @ F,0,0,1,0,0,0,1 @ F,0,0,1,0,0,0,1 @ F,0,0,1,0,0,0,1 @ F,0,0,1,0,0,0,1 @ F,0,0,1,0,0,0,1 @ F,0,0,1,0,0,0,1 @ F,0,0,1,0,0,0,1 @ F,0,0,1,0,0,0,1 @ F,0,0,1,0,0,0,1 | F,0,0,1,0,0,0,1 @ F,0,0,1,0,0,0,1 @ F,0,0,1,0,0,0,1 @ F,0,0,1,0,0,0,1 @ F,0,0,1,0,0,0,1 @ F,0,0,1,0,0,0,1 @ F,0,0,1,0,0,0,1 @ F,0,0,1,0,0,0,1 @ F,0,0,1,0,0,0,1 @ F,0,0,1,0,0,0,1 @ F,0,0,1,0,0,0,1 @ F,0,0,1,0,0,0,1 @ F,0,0,1,0,0,0,1 @ F,0,0,1,0,0,0,1 @ F,0,0,1,0,0,0,1 @ F,0,0,1,0,0,0,1 @ F,0,0,1,0,0,0,1 @ F,0,0,1,0,0,0,1 @ F,0,0,1,0,0,0,1 @ F,0,0,1,0,0,0,1 @ F,0,0,1,0,0,0,1 @ F,0,0,1,0,0,0,1 @ F,0,0,1,0,0,0,1 @ F,0,0,1,0,0,0,1 @ F,0,0,1,0,0,0,1 @ F,0,0,1,0,0,0,1 @ F,0,0,1,0,0,0,1 @ F,0,0,1,0,0,0,1 | F,0,0,1,0,0,0,1 @ F,0,0,1,0,0,0,1 @ F,0,0,1,0,0,0,1 @ F,0,0,1,0,0,0,1 @ F,0,0,1,0,0,0,1 @ F,0,0,1,0,0,0,1 @ F,0,0,1,0,0,0,1 @ F,0,0,1,0,0,0,1 @ F,0,0,1,0,0,0,1 @ F,0,0,1,0,0,0,1 @ F,0,0,1,0,0,0,1 @ F,0,0,1,0,0,0,1 @ F,0,0,1,0,0,0,1 @ F,0,0,1,0,0,0,1 @ F,0,0,1,0,0,0,1 @ F,0,0,1,0,0,0,1 @ F,0,0,1,0,0,0,1 @ F,0,0,1,0,0,0,1 @ F,0,0,1,0,0,0,1 @ F,0,0,1,0,0,0,1 @ F,0,0,1,0,0,0,1 @ F,0,0,1,0,0,0,1 @ F,0,0,1,0,0,0,1 @ F,0,0,1,0,0,0,1 @ F,0,0,1,0,0,0,1 @ F,0,0,1,0,0,0,1 @ F,0,0,1,0,0,0,1 @ F,0,0,1,0,0,0,1 @ F,0,0,1,0,0,0,1 @ F,0,0,1,0,0,0,1 @ F,0,0,1,0,0,0,1 @ F,0,0,1,0,0,0,1 @ F,0,0,1,0,0,0,1 @ F,0,0,1,0,0,0,1 @ F,0,0,1,0,0,0,1 @ F,0,0,1,0,0,0,1 @ F,0,0,1,0,0,0,1 @ F,0,0,1,0,0,0,1 @ F,0,0,1,0,0,0,1 @ F,0,0,1,0,0,0,1 | F,0,0,1,0,0,0,1 @ F,0,0,1,0,0,0,1 @ F,0,0,1,0,0,0,1 @ F,0,0,1,0,0,0,1 @ F,0,0,1,0,0,0,1 @ F,0,0,1,0,0,0,1 @ F,0,0,1,0,0,0,1 @ F,0,0,1,0,0,0,1 @ F,0,0,1,0,0,0,1 @ F,0,0,1,0,0,0,1 @ F,0,0,1,0,0,0,1 @ F,0,0,1,0,0,0,1 @ F,0,0,1,0,0,0,1 @ F,0,0,1,0,0,0,1 @ F,0,0,1,0,0,0,1 @ F,0,0,1,0,0,0,1 @ F,0,0,1,0,0,0,1 @ F,0,0,1,0,0,0,1 @ F,0,0,1,0,0,0,1 @ F,0,0,1,0,0,0,1 @ F,0,0,1,0,0,0,1 @ F,0,0,1,0,0,0,1 @ F,0,0,1,0,0,0,1 @ F,0,0,1,0,0,0,1 @ F,0,0,1,0,0,0,1 @ F,0,0,1,0,0,0,1 @ F,0,0,1,0,0,0,1 @ F,0,0,1,0,0,0,1 @ F,0,0,1,0,0,0,1 @ F,0,0,1,0,0,0,1 @ F,0,0,1,0,0,0,1 @ F,0,0,1,0,0,0,1 @ F,0,0,1,0,0,0,1 @ F,0,0,1,0,0,0,1 @ F,0,0,1,0,0,0,1 @ F,0,0,1,0,0,0,1 @ F,0,0,1,0,0,0,1 @ F,0,0,1,0,0,0,1 @ F,0,0,1,0,0,0,1 @ F,0,0,1,0,0,0,1 @ F,0,0,1,0,0,0,1 @ F,0,0,1,0,0,0,1 @ F,0,0,1,0,0,0,1 @ F,0,0,1,0,0,0,1 @ F,0,0,1,0,0,0,1 @ F,0,0,1,0,0,0,1 @ F,0,0,1,0,0,0,1 @ F,0,0,1,0,0,0,1 @ F,0,0,1,0,0,0,1 @ F,0,0,1,0,0,0,1 @ F,0,0,1,0,0,0,1 @ F,0,0,1,0,0,0,1 @ F,0,0,1,0,0,0,1 @ F,0,0,1,0,0,0,1 @ F,0,0,1,0,0,0,1 @ F,0,0,1,0,0,0,1 @ F,0,0,1,0,0,0,1 @ F,0,0,1,0,0,0,1 @ F,0,0,1,0,0,0,1 @ F,0,0,1,0,0,0,1 @ F,0,0,1,0,0,0,1 @ F,0,0,1,0,0,0,1 @ F,0,0,1,0,0,0,1 @ F,0,0,1,0,0,0,1 | F,0,0,1,0,0,0,1 @ F,0,0,1,0,0,0,1 @ F,0,0,1,0,0,0,1 @ F,0,0,1,0,0,0,1 @ F,0,0,1,0,0,0,1 @ F,0,0,1,0,0,0,1 @ F,0,0,1,0,0,0,1 @ F,0,0,1,0,0,0,1 @ F,0,0,1,0,0,0,1 @ F,0,0,1,0,0,0,1 @ F,0,0,1,0,0,0,1 @ F,0,0,1,0,0,0,1 @ F,0,0,1,0,0,0,1 @ F,0,0,1,0,0,0,1 @ F,0,0,1,0,0,0,1 @ F,0,0,1,0,0,0,1 @ F,0,0,1,0,0,0,1 @ F,0,0,1,0,0,0,1 @ F,0,0,1,0,0,0,1 @ F,0,0,1,0,0,0,1 @ F,0,0,1,0,0,0,1 @ F,0,0,1,0,0,0,1 @ F,0,0,1,0,0,0,1 @ F,0,0,1,0,0,0,1 @ F,0,0,1,0,0,0,1 @ F,0,0,1,0,0,0,1 @ F,0,0,1,0,0,0,1 @ F,0,0,1,0,0,0,1 @ F,0,0,1,0,0,0,1 @ F,0,0,1,0,0,0,1 @ F,0,0,1,0,0,0,1 @ F,0,0,1,0,0,0,1 @ F,0,0,1,0,0,0,1 @ F,0,0,1,0,0,0,1 @ F,0,0,1,0,0,0,1 @ F,0,0,1,0,0,0,1 @ F,0,0,1,0,0,0,1 @ F,0,0,1,0,0,0,1 @ F,0,0,1,0,0,0,1 @ F,0,0,1,0,0,0,1 @ F,0,0,1,0,0,0,1 @ F,0,0,1,0,0,0,1 @ F,0,0,1,0,0,0,1 @ F,0,0,1,0,0,0,1 @ F,0,0,1,0,0,0,1 @ F,0,0,1,0,0,0,1 | F,0,0,1,0,0,0,1 @ F,0,0,1,0,0,0,1 @ F,0,0,1,0,0,0,1 @ F,0,0,1,0,0,0,1 @ F,0,0,1,0,0,0,1 @ F,0,0,1,0,0,0,1 @ F,0,0,1,0,0,0,1 @ F,0,0,1,0,0,0,1 | F,0,0,1,0,0,0,1 @ F,0,0,1,0,0,0,1 @ F,0,0,1,0,0,0,1 @ F,0,0,1,0,0,0,1 @ F,0,0,1,0,0,0,1 @ F,0,0,1,0,0,0,1 @ F,0,0,1,0,0,0,1 @ F,0,0,1,0,0,0,1"
       radius="0"
       unit="px"
       method="auto"
       mode="F"
       chamfer_steps="1"
       flexible="false"
       use_knot_distance="true"
       apply_no_radius="true"
       apply_with_radius="true"
       only_selected="false"
       hide_knots="false" />
  </defs>
  <sodipodi:namedview
     id="namedview1"
     pagecolor="#ffffff"
     bordercolor="#000000"
     borderopacity="0.25"
     inkscape:showpageshadow="2"
     inkscape:pageopacity="0.0"
     inkscape:pagecheckerboard="0"
     inkscape:deskcolor="#d1d1d1"
     inkscape:zoom="0.59326172"
     inkscape:cx="981.01728"
     inkscape:cy="336.27654"
     inkscape:window-width="3440"
     inkscape:window-height="1417"
     inkscape:window-x="1912"
     inkscape:window-y="-8"
     inkscape:window-maximized="1"
     inkscape:current-layer="g15"
     inkscape:export-bgcolor="#ffffff00" />
  <g
     inkscape:groupmode="layer"
     inkscape:label="Image"
     id="g1">
    <g
       id="g15"
       transform="matrix(1.0673334,0,0,1.0673334,-41.511827,-46.9645)">
      <g
         id="g14">
        <g
           id="g16">
          <path
             style="fill:#000000;fill-opacity:1;fill-rule:nonzero"
             d="m 1290.4747,722.47233 -46.6502,-0.0528 -5.1024,-2.18759 -5.1024,-2.18759 -91.1408,-91.05583 -91.141,-91.0559 55.4241,-0.0741 55.4246,-0.0741 6.5601,-0.73212 6.5602,-0.73211 9.7139,-2.84192 9.7139,-2.84193 7.2721,-5.74819 7.2719,-5.74818 3.6823,-7.78352 3.6821,-7.78352 2.3737,-12.66697 2.3734,-12.66698 -1.4779,-7.99545 -1.4781,-7.99545 -2.8719,-5.62949 -2.872,-5.62949 -5.6923,-3.76691 -5.692,-3.7669 -7.1683,-2.6657 -7.1682,-2.66569 -67.2253,-0.47576 -67.225,-0.47575 -0.9998,7.73887 -0.9998,7.73885 -7.23,48.83697 -7.23,48.83697 -4.2812,27.69858 -4.2811,27.69858 -5.1919,33.52986 -5.1918,33.52986 0.01,3.28009 0.01,3.28005 h -43.00567 -43.0057 v -0.45567 -0.45565 l 10.1278,-67.69743 10.1277,-67.69741 3.7576,-24.78294 3.7577,-24.78294 3.8132,-24.78294 3.8133,-24.78294 0.069,-8.81537 0.068,-8.81536 -3.223,-6.65777 -3.223,-6.65774 -9.0773,-8.58589 -9.0774,-8.58589 -4.8601,-3.63958 -4.8601,-3.63956 140.43727,0.13718 140.4376,0.13718 16.1292,3.11183 16.1293,3.11183 5.738,2.0248 5.7381,2.0248 10.1189,4.93088 10.1187,4.93089 7.6369,6.97715 7.6368,6.97717 4.5111,6.81028 4.5109,6.8103 2.7283,8.83322 2.7283,8.83321 1.0303,9.62132 1.0304,9.6213 -1.7545,13.67936 -1.7545,13.67935 -4.2179,13.2467 -4.2181,13.2467 -5.7047,8.6206 -5.7047,8.6206 -3.4144,3.80058 -3.4145,3.80059 -6.5602,5.14096 -6.5602,5.14096 -9.3621,4.69089 -9.3623,4.69088 -13.2449,3.35985 -13.245,3.35986 -13.4739,1.05404 -13.4739,1.05405 v 0.20752 0.20752 l 71.7976,71.76233 71.7977,71.76233 z m -1092.80506,-9.19091 -6.72905,4.83989 3.33264,-19.2967 3.33265,-19.2967 7.5393,-46.65024 7.53931,-46.65023 7.82238,-48.10806 7.8224,-48.10806 11.00826,-67.78863 11.00826,-67.78863 0.83187,-4.00901 0.83184,-4.009 h 42.25919 42.25919 l -0.80237,2.55118 -0.80235,2.55119 -20.50121,122.45688 -20.5012,122.45688 -2.82571,16.76493 -2.82572,16.76493 -1.48043,5.2173 -1.48045,5.2173 -5.50895,7.90308 -5.50897,7.90307 -12.34971,9.97091 -12.3497,9.97089 -22.59621,16.14848 -22.59621,16.14846 z m 316.85693,-35.94024 h -61.2122 l -9.37058,-10.56919 -9.37059,-10.5692 -38.72139,-45.19241 -38.72139,-45.19242 -17.49882,-20.18241 -17.49881,-20.18241 -3.21714,-6.44167 -3.21711,-6.44166 0.94805,-4.31644 0.94805,-4.31645 6.46235,-7.18769 6.46236,-7.1877 24.40886,-19.57407 24.40888,-19.57408 65.23177,-51.99866 65.23178,-51.99867 h 50.3865 50.38648 l -0.84515,1.36749 -0.84516,1.36749 -55.73139,43.35487 -55.73141,43.35488 -8.01801,6.29204 -8.01801,6.29204 -24.80395,19.3254 -24.80393,19.32542 -8.72593,7.08585 -8.72591,7.08585 -0.38685,0.99932 -0.38683,0.99932 19.16077,20.34232 19.16078,20.34232 34.35728,37.17441 34.35729,37.17441 12.47068,13.15269 12.47068,13.1527 15.10511,16.36816 15.1051,16.36815 z m 205.43108,-0.14417 -73.8395,-0.14418 -11.66256,-1.82302 -11.66256,-1.82302 -8.74692,-2.54219 -8.74692,-2.54217 -10.20474,-5.0924 -10.20474,-5.0924 -5.09314,-3.86368 -5.09313,-3.86367 -6.05743,-6.3219 -6.05745,-6.32188 -4.37272,-9.00454 -4.37271,-9.00466 -1.6061,-7.72531 -1.60609,-7.72531 v -11.7329 -11.73289 l 6.62149,-45.82418 6.62151,-45.82416 3.02034,-9.79536 3.02034,-9.79535 3.64962,-7.21379 3.64961,-7.21378 5.75912,-7.62789 5.75911,-7.62792 7.55465,-5.76579 7.55464,-5.76581 8.01801,-4.45287 8.01801,-4.45285 11.01613,-3.5788 11.01612,-3.57882 13.84952,-2.35919 13.84953,-2.35919 77.18175,-0.16189 77.18175,-0.16189 7.2891,1.00429 7.28914,1.00429 15.3071,3.6077 15.3071,3.60768 10.9336,5.34546 10.9337,5.34545 9.5532,9.54023 9.5532,9.54026 3.3377,7.19596 3.3377,7.19594 2.1798,10.2979 2.1798,10.29788 -0.9712,13.12038 -0.9713,13.12038 -6.3674,44.46351 -6.3674,44.46351 -3.1388,9.47583 -3.1387,9.47583 -3.8644,8.00039 -3.8644,8.0004 -9.4758,9.61777 -9.4759,9.61778 -10.6457,6.28298 -10.6456,6.283 -12.6078,4.2367 -12.60783,4.23669 -16.61697,2.84082 -16.61699,2.84081 z m 9.25624,-36.91037 42.27678,-0.40964 9.69693,-3.14948 9.69696,-3.14948 7.05249,-4.72361 7.0525,-4.72362 5.45399,-8.01801 5.454,-8.01801 2.15647,-8.74692 2.15648,-8.74692 7.4561,-51.75261 7.45611,-51.75261 -0.95781,-6.56019 -0.95784,-6.56019 -2.70841,-6.18494 -2.70842,-6.18496 -4.09575,-3.80525 -4.09574,-3.80523 -5.43575,-2.77951 -5.43574,-2.77949 -9.87137,-2.3639 -9.87136,-2.36389 -43.3993,0.2783 -43.39932,0.27831 -8.35329,2.14374 -8.35331,2.14376 -7.58447,3.67357 -7.58448,3.67359 -6.55091,7.28618 -6.55092,7.2862 -3.15599,8.31195 -3.15599,8.31195 -3.50675,23.32512 -3.50678,23.32512 -3.794,25.51185 -3.79399,25.51185 -0.1908,11.66256 -0.1908,11.66256 4.11898,8.3881 4.11898,8.38809 6.08576,4.14266 6.08576,4.14264 6.56019,2.44323 6.56019,2.44324 8.74692,1.32676 8.74692,1.32676 z m 91.92104,-268.78106 -29.96659,0.42232 0.001,-24.41849 10e-4,-24.41848 h 29.69648 29.69651 l 0.2686,23.99617 0.2687,23.99615 z m -108.68597,-0.30659 h -29.1564 v -24.05403 -24.05403 h 29.1564 29.1564 v 24.05403 24.05403 z"
             id="path2"
             sodipodi:nodetypes="ccccccccccccccccccccccccccccccccccccccccccccccccccccccccccccccccccccccccccccccccccccccccccccccccccccccccccccccccccccccccccccccccccccccccccccccccccccccccccccccccccccccccccccccccccccccccccccccccccccccccccccccccccccccccccccccccccccccccccccccccccccccccccccccccccccccccccccccccccccccccccccccccccccc" />
        </g>
      </g>
    </g>
  </g>
</svg>
